<svg width="48" height="48" viewBox="0 0 48 48" fill="none" xmlns="http://www.w3.org/2000/svg">
<g clip-path="url(#clip0_4_169)">
<path d="M47.8535 21.2953C47.3507 16.8544 45.6171 12.6422 42.848 9.13327C40.0789 5.6244 36.3845 2.95836 32.181 1.43562C27.9776 -0.0871135 23.4322 -0.406016 19.0572 0.514855C14.6821 1.43573 10.6513 3.55976 7.41908 6.64759C4.18682 9.73542 1.88158 13.6643 0.763145 17.9914C-0.355286 22.3186 -0.242446 26.8719 1.08895 31.1384C2.42034 35.4049 4.91737 39.2148 8.29861 42.1389C11.6798 45.0629 15.8109 46.9849 20.2262 47.6881C21.4725 47.8885 22.7323 47.9928 23.9946 48C28.821 48.0013 33.5367 46.5553 37.5323 43.8491C38.0606 43.4896 38.4245 42.935 38.5438 42.3073C38.6631 41.6796 38.528 41.0302 38.1683 40.502C37.8087 39.9739 37.2538 39.6102 36.6259 39.4909C35.9979 39.3717 35.3483 39.5067 34.8199 39.8662C32.2702 41.5784 29.3467 42.6541 26.295 43.0031C23.2432 43.3521 20.1522 42.9642 17.2815 41.8719C14.4108 40.7797 11.8441 39.015 9.79683 36.7259C7.7496 34.4369 6.28158 31.6903 5.51601 28.7167C4.75044 25.7432 4.70967 22.6294 5.39711 19.6369C6.08455 16.6443 7.48014 13.8603 9.46674 11.5184C11.4533 9.1766 13.973 7.34533 16.8141 6.17835C19.6553 5.01136 22.735 4.54272 25.7948 4.81175C28.5712 5.06855 31.2584 5.92666 33.6695 7.32644C36.0806 8.72622 38.1578 10.6341 39.7567 12.9174C41.3557 15.2007 42.438 17.8047 42.9285 20.5484C43.4189 23.2921 43.3058 26.1097 42.5969 28.8052C42.3814 29.5892 41.8889 30.2684 41.2107 30.717C40.5324 31.1655 39.7144 31.353 38.9084 31.2446C38.1024 31.1362 37.363 30.7393 36.8275 30.1275C36.2919 29.5156 35.9965 28.7304 35.9961 27.9175V24.0065C36.002 21.2249 35.0408 18.5276 33.2769 16.3762C31.5129 14.2248 29.0559 12.753 26.3262 12.2126C23.5964 11.6722 20.7637 12.0968 18.3126 13.4138C15.8615 14.7308 13.9444 16.8582 12.8893 19.4322C11.8342 22.0062 11.7067 24.8666 12.5287 27.5242C13.3506 30.1817 15.0709 32.4712 17.3951 34.0008C19.7193 35.5304 22.5031 36.2052 25.2701 35.9096C28.0371 35.6139 30.6153 34.3663 32.5637 32.3802C33.3201 33.5034 34.3428 34.422 35.5406 35.0542C36.7384 35.6863 38.074 36.0124 39.4285 36.0033C41.2128 36.0096 42.9489 35.4242 44.3649 34.3388C45.7808 33.2533 46.7967 31.7292 47.2534 30.0049C47.9694 27.1604 48.1726 24.2111 47.8535 21.2953ZM23.9946 31.2046C22.5704 31.2046 21.1782 30.7824 19.994 29.9915C18.8099 29.2005 17.8869 28.0764 17.3419 26.7611C16.7969 25.4458 16.6543 23.9985 16.9321 22.6023C17.21 21.206 17.8958 19.9234 18.9029 18.9167C19.9099 17.9101 21.193 17.2245 22.5898 16.9468C23.9866 16.6691 25.4345 16.8116 26.7503 17.3564C28.0661 17.9012 29.1907 18.8238 29.9819 20.0075C30.7732 21.1912 31.1955 22.5829 31.1955 24.0065C31.1955 25.9156 30.4368 27.7464 29.0864 29.0963C27.736 30.4462 25.9044 31.2046 23.9946 31.2046Z" fill="white"/>
</g>
<defs>
<clipPath id="clip0_4_169">
<rect width="48" height="48" fill="white"/>
</clipPath>
</defs>
</svg>
