<svg width="48" height="48" viewBox="0 0 48 48" fill="none" xmlns="http://www.w3.org/2000/svg">
<path d="M3.29975 21.2352C16.1846 15.6215 24.7766 11.9206 29.0756 10.1325C41.3501 5.0271 43.9006 4.14024 45.563 4.11064C45.9286 4.10451 46.7461 4.19513 47.2757 4.62483C47.7229 4.98766 47.8459 5.47779 47.9048 5.82179C47.9636 6.16579 48.0369 6.94943 47.9787 7.56175C47.3135 14.5506 44.4354 31.5108 42.9711 39.3385C42.3516 42.6507 41.1316 43.7612 39.9505 43.8699C37.3838 44.1061 35.4348 42.1737 32.9488 40.5441C29.0587 37.9941 26.8611 36.4067 23.0851 33.9184C18.7213 31.0427 21.5502 29.4622 24.0371 26.8791C24.6879 26.2031 35.9969 15.9167 36.2158 14.9836C36.2432 14.8669 36.2686 14.4319 36.0101 14.2022C35.7517 13.9725 35.3703 14.051 35.095 14.1135C34.7049 14.202 28.4904 18.3096 16.4517 26.4361C14.6877 27.6473 13.09 28.2375 11.6585 28.2066C10.0803 28.1725 7.04466 27.3143 4.78794 26.5807C2.01998 25.6809 -0.179935 25.2052 0.0116284 23.6772C0.111407 22.8813 1.20745 22.0673 3.29975 21.2352Z" fill="white"/>
</svg>
